<?xml version="1.0" encoding="UTF-8"?>
<svg xmlns="http://www.w3.org/2000/svg" version="1.1" viewBox="0 0 80 80">
  <!-- Generator: Adobe Illustrator 29.5.1, SVG Export Plug-In . SVG Version: 2.1.0 Build 141)  -->
  <defs>
    <style>
      .st0, .st1 {
        fill: #fff;
      }

      .st1 {
        font-family: SICKIntl-Semibold, 'SICK Intl';
        font-size: 14px;
        font-weight: 600;
        letter-spacing: .03em;
      }

      .st2 {
        fill: #005aff;
      }
    </style>
  </defs>
  <g id="Icon">
    <g>
      <path class="st2" d="M54.41,74.01c-4.12-2.08-8.83-4.24-13.84-6.29-.14-.06-.27-.11-.41-.16,5.28,5.25,10.39,9.43,14.87,12.45h3.15c-.65-.99-1.26-2.08-1.83-3.26-.65-.86-1.3-1.77-1.95-2.73Z"/>
      <path class="st2" d="M58.72,80h.34c-.39-.42-.78-.87-1.17-1.33.27.46.54.91.83,1.33Z"/>
      <path class="st2" d="M56.71,76.39c1.01,1.33,2.02,2.54,3.02,3.61h5.12c-2.3-1.56-5.31-3.32-8.83-5.16.22.53.45,1.05.69,1.55Z"/>
      <path class="st2" d="M39,67.08c-13.58-5.45-24.24-8.2-28.88-8.2-1.42,0-2.27.25-2.48.76-.08.19-.06.43.06.72,1.35,3.26,13.81,10.41,28.99,16.64,2.69,1.1,5.27,2.1,7.72,3h9.76c-4.57-3.15-9.62-7.36-14.56-12.3-.21-.21-.4-.42-.61-.62Z"/>
      <path class="st2" d="M55.38,74.51s-.04-.02-.06-.03c.03.05.07.1.1.15-.02-.04-.03-.08-.05-.12Z"/>
      <path class="st2" d="M7.23,60.56c-.17-.42-.19-.79-.06-1.11,1.26-3.01,16.28.96,30.96,6.75-5.73-5.91-10.55-11.96-13.65-17.19-3.42-5.76-4.36-9.88-2.65-11.59,1.71-1.71,5.83-.77,11.59,2.65,2.77,1.65,5.78,3.78,8.87,6.27-2.97-11.92-2.39-21.41,2.06-23.27,1.23-.51,2.66-.43,4.26.23,2.22.92,4.67,2.94,7.15,5.76,2.87-6.68,6.97-10.88,11.51-10.88,5.22,0,9.86,5.55,12.72,14.06V14.55c0-8.03-6.52-14.55-14.57-14.55H14.57C6.52,0,0,6.51,0,14.55v50.91c0,8.03,6.52,14.55,14.57,14.55h28.44c-2.16-.8-4.35-1.65-6.51-2.53-15.54-6.38-27.85-13.49-29.26-16.91Z"/>
      <path class="st2" d="M51.59,54.68c-.03-.8-.04-1.61-.04-2.43,0-8.71,1.52-16.66,4.01-22.69-2.48-2.85-4.92-4.88-7.13-5.8-.84-.35-1.63-.52-2.36-.52-.54,0-1.05.1-1.52.29-4.32,1.8-4.74,11.36-1.62,23.33,2.86,2.34,5.78,4.98,8.67,7.83Z"/>
      <path class="st2" d="M55.74,74.12c4.07,2.1,7.48,4.11,9.97,5.87,1.32-.02,2.59-.22,3.8-.57-2.27-5.85-8.9-14.94-17.37-23.48.34,6.9,1.64,13.18,3.6,18.18Z"/>
      <path class="st2" d="M67.28,18.68c-4.41,0-8.38,4.15-11.16,10.77,4.24,4.95,8.55,12.24,11.98,20.58,4.32,10.49,6.4,20.3,6.11,27.02,3.51-2.66,5.8-6.85,5.8-11.59v-31.63c-2.73-9.11-7.41-15.14-12.72-15.14Z"/>
      <path class="st2" d="M43.15,47.69c.97,3.56,2.24,7.32,3.82,11.15,2.27,5.52,4.96,10.57,7.77,14.76.12.06.25.12.37.19-1.93-5.11-3.19-11.45-3.48-18.38-2.81-2.8-5.67-5.4-8.47-7.72Z"/>
      <path class="st2" d="M67.64,50.22c-3.37-8.2-7.59-15.37-11.73-20.26-2.4,5.93-3.86,13.74-3.86,22.29,0,.99.02,1.97.06,2.94,0,0,0,0,0,0,8.82,8.82,15.57,18.04,17.88,24.07,1.35-.45,2.62-1.08,3.77-1.88.36-6.6-1.74-16.52-6.12-27.16Z"/>
      <path class="st2" d="M40.76,67.25c4.74,1.94,9.17,3.95,13.09,5.91-2.66-4.08-5.19-8.89-7.35-14.13-1.68-4.08-3.01-8.09-4-11.88-3.26-2.66-6.43-4.93-9.34-6.65-3.79-2.25-6.88-3.42-8.92-3.42-.9,0-1.6.23-2.06.69-1.51,1.51-.52,5.51,2.73,10.98,3.22,5.43,8.31,11.76,14.36,17.9.5.2.99.4,1.49.6Z"/>
      <path class="st0" d="M36.69,77c-15.18-6.23-27.64-13.38-28.99-16.64-.12-.29-.14-.53-.06-.72.21-.51,1.07-.76,2.48-.76,4.64,0,15.3,2.75,28.88,8.2.21.21.4.42.61.62,4.94,4.94,9.99,9.15,14.56,12.3h.87c-4.48-3.01-9.59-7.2-14.87-12.45.14.06.27.11.41.16,5.01,2.06,9.72,4.21,13.84,6.29.64.96,1.29,1.86,1.95,2.73.57,1.19,1.18,2.27,1.83,3.26h.54c-.28-.42-.56-.87-.83-1.33.39.46.78.91,1.17,1.33h.67c-1.01-1.08-2.02-2.28-3.02-3.61-.24-.5-.47-1.01-.69-1.55,3.53,1.84,6.54,3.6,8.83,5.16h.58c.09,0,.18-.01.27-.01-2.49-1.76-5.9-3.77-9.97-5.87-1.95-5-3.25-11.28-3.6-18.18,8.47,8.54,15.09,17.62,17.37,23.48.16-.05.32-.1.48-.15-2.31-6.03-9.05-15.24-17.88-24.07,0,0,0,0,0,0-.04-.97-.06-1.95-.06-2.94,0-8.55,1.46-16.36,3.86-22.29,4.14,4.89,8.36,12.06,11.73,20.26,4.38,10.65,6.48,20.57,6.12,27.16.15-.11.3-.22.44-.33.29-6.72-1.79-16.53-6.11-27.02-3.43-8.34-7.74-15.63-11.98-20.58,2.78-6.62,6.76-10.77,11.16-10.77,5.31,0,9.99,6.03,12.72,15.14v-1.58c-2.86-8.51-7.5-14.06-12.72-14.06-4.54,0-8.63,4.19-11.51,10.88-2.48-2.82-4.93-4.84-7.15-5.76-1.6-.66-3.04-.74-4.26-.23-4.45,1.86-5.04,11.35-2.06,23.27-3.09-2.49-6.1-4.62-8.87-6.27-5.76-3.42-9.88-4.36-11.59-2.65-1.71,1.71-.77,5.83,2.65,11.59,3.1,5.23,7.92,11.27,13.65,17.19-14.68-5.79-29.7-9.76-30.96-6.75-.13.32-.11.69.06,1.11,1.42,3.42,13.72,10.53,29.26,16.91,2.16.89,4.34,1.73,6.51,2.53h1.4c-2.45-.9-5.03-1.89-7.72-3ZM55.38,74.51s.03.08.05.12c-.03-.05-.07-.1-.1-.15.02,0,.04.02.06.03ZM55.1,73.79c-.12-.06-.25-.12-.37-.19-2.81-4.19-5.5-9.24-7.77-14.76-1.57-3.83-2.85-7.59-3.82-11.15,2.8,2.32,5.66,4.91,8.47,7.72.3,6.94,1.55,13.28,3.48,18.38ZM44.55,23.53c.47-.2.98-.29,1.52-.29.73,0,1.51.18,2.36.52,2.21.92,4.65,2.94,7.13,5.8-2.49,6.03-4.01,13.98-4.01,22.69,0,.82.02,1.63.04,2.43-2.88-2.85-5.81-5.49-8.67-7.83-3.12-11.97-2.7-21.52,1.62-23.33ZM24.91,48.75c-3.25-5.46-4.24-9.47-2.73-10.98.46-.46,1.16-.69,2.06-.69,2.04,0,5.13,1.17,8.92,3.42,2.91,1.73,6.08,4,9.34,6.65.99,3.78,2.32,7.8,4,11.88,2.15,5.24,4.69,10.05,7.35,14.13-3.92-1.95-8.35-3.96-13.09-5.91-.49-.2-.99-.4-1.49-.6-6.05-6.14-11.14-12.47-14.36-17.9Z"/>
    </g>
  </g>
  <g id="Schrift">
    <g>
      <rect class="st2" x="6.02" y="7.07" width="39.47" height="15.51"/>
      <text class="st1" transform="translate(9.02 19.15)"><tspan x="0" y="0">SDK</tspan></text>
    </g>
  </g>
</svg>